
<svg version="1.1" id="Calque_1" xmlns="http://www.w3.org/2000/svg" xmlns:xlink="http://www.w3.org/1999/xlink" x="0px" y="0px"
	 width="432px" height="224px" viewBox="0 0 432 224" style="enable-background:new 0 0 432 224;" xml:space="preserve">

	 <defs>
	 	<style>
	 		.st2 {
				stroke-dasharray : 1000;
				stroke-dashoffset : 0;
				-webkit-animation : dash 3s linear forwards;
				-moz-animation : dash 3s linear forwards;
				-o-animation : dash 3s linear forwards;
				animation : dash 3s linear forwards;
	 		}

	 		@-webkit-keyframes dash {
		 		from {
		 			stroke-dashoffset : 1000;
		 		}
		 		top {
		 			stroke-dashoffset : 0;
		 		}
	 		}
	 	</style>
	 </defs>


<style type="text/css">
<![CDATA[
	.st0{opacity:0.3;fill:none;stroke:#FC3232;stroke-miterlimit:10;}
	.st1{fill:none;}
	.st2{fill:#FFFFFF;stroke:#FC3232;stroke-width:2;stroke-miterlimit:10;}
	.st3{fill:#FC3232;stroke:#FFFFFF;stroke-width:2;stroke-miterlimit:10;}
	.st4{font-size:33.3231;}
	.st5{font-family:'Franchise-Bold';}
]]>
</style>
<path id="first" class="st2" d="M392.799,119.148l1.121,11.516c0.117,1.209-0.428,1.871-1.635,1.988L95.187,164.57l-0.258,0.025l-0.129,0.012
	l-11.516,1.122c-1.209,0.118-1.871-0.427-1.988-1.636L69.917,47.287c-0.117-1.207,0.426-1.87,1.635-1.988l11.516-1.122
	c1.207-0.118,1.869,0.428,1.988,1.635l10.08,103.48l295.674-31.778C392.018,117.396,392.68,117.942,392.799,119.148z"/>

<path d="M253.396,122.085"/>
<path class="st2" d="M68.531,153.713l1.123,11.516c0.117,1.209-0.43,1.871-1.637,1.988l-28.076,2.735
	c-1.209,0.118-1.871-0.427-1.988-1.636L26.574,51.51c-0.117-1.207,0.426-1.87,1.635-1.988l28.078-2.735
	c1.207-0.117,1.869,0.428,1.986,1.635l1.123,11.516c0.117,1.208-0.428,1.87-1.635,1.988l-14.75,1.437l3.463,35.552l12.809-1.248
	c1.207-0.118,1.871,0.428,1.988,1.635l1.121,11.516c0.119,1.209-0.428,1.871-1.635,1.988l-12.809,1.248l3.846,39.463l14.748-1.438
	C67.75,151.961,68.414,152.506,68.531,153.713z"/>
<path class="st2" d="M150.484,39.438l8.471,86.948c0.117,1.209-0.428,1.871-1.635,1.988l-12.422,1.21
	c-1.209,0.118-1.869-0.427-1.988-1.636l-3.982-40.886l-5.287,34.215c-0.133,0.448-0.326,0.685-0.586,0.71
	c-0.258,0.024-0.494-0.17-0.709-0.584l-11.791-32.551l3.982,40.887c0.119,1.209-0.428,1.87-1.635,1.988l-12.42,1.209
	c-1.209,0.118-1.871-0.426-1.988-1.635l-8.471-86.948c-0.117-1.207,0.426-1.87,1.635-1.988l10.998-1.071
	c0.518-0.051,0.988,0.099,1.414,0.45c0.428,0.351,0.746,0.733,0.961,1.147l14.734,45.325l5.709-47.316
	c0.131-0.448,0.371-0.885,0.723-1.311c0.35-0.426,0.783-0.664,1.301-0.715l10.998-1.071
	C149.703,37.686,150.367,38.232,150.484,39.438z"/>
<path class="st2" d="M201.177,110.648l1.121,11.516c0.119,1.209-0.428,1.871-1.635,1.988l-28.076,2.735
	c-1.209,0.118-1.871-0.427-1.988-1.636l-8.471-86.948c-0.117-1.207,0.426-1.87,1.635-1.988l28.076-2.735
	c1.209-0.118,1.871,0.428,1.988,1.635l1.123,11.516c0.117,1.208-0.428,1.87-1.635,1.987l-14.752,1.437l1.816,18.632l12.809-1.248
	c1.207-0.118,1.871,0.428,1.988,1.635l1.121,11.516c0.119,1.209-0.428,1.871-1.635,1.988l-12.809,1.248l2.584,26.524l14.75-1.437
	C200.396,108.896,201.06,109.442,201.177,110.648z"/>
<path class="st2" d="M245.582,30.174l8.471,86.949c0.119,1.209-0.428,1.87-1.635,1.987l-8.281,0.808
	c-0.518,0.05-1.031-0.074-1.537-0.373c-0.51-0.298-0.871-0.654-1.086-1.07l-17.887-41.492l4.16,42.699
	c0.117,1.209-0.428,1.87-1.635,1.988l-11.516,1.121c-1.209,0.118-1.869-0.426-1.988-1.635l-8.471-86.949
	c-0.117-1.207,0.428-1.87,1.637-1.988l8.539-0.832c0.518-0.051,1.029,0.075,1.539,0.373c0.506,0.299,0.867,0.656,1.082,1.07
	l17.502,40.222l-4.033-41.404c-0.117-1.207,0.426-1.87,1.635-1.988l11.516-1.122C244.801,28.422,245.465,28.967,245.582,30.174z"/>
<path class="st1" d="M326.586,89.412c1.229-0.044,2.427,0.042,3.579,0.231l-4.675-11.481L326.586,89.412z"/>
<path class="st1" d="M272.328,116.365c-0.021,0.87,0.016,1.748,0.117,2.675c0.111,1.024,0.311,1.989,0.559,2.95
	c0.006-0.002,0.01-0.006,0.016-0.008c-0.256-0.984-0.461-1.996-0.574-3.046C272.35,118.068,272.314,117.212,272.328,116.365z"/>
<path class="st1" d="M327.955,60.551c0.861-0.084,1.564-0.457,2.111-1.12c0.543-0.661,0.775-1.425,0.691-2.288l-1.93-19.796
	c-0.084-0.861-0.457-1.565-1.119-2.111c-0.664-0.543-1.428-0.775-2.287-0.691l-4.141,0.403l2.533,26.007L327.955,60.551z"/>
<path class="st2" d="M286.107,99.093c1.344-0.146,2.668-0.086,3.951,0.149l-1.865-19.144l9.66-55.017
	c0.131-0.447,0.049-0.854-0.248-1.217c-0.297-0.363-0.705-0.519-1.221-0.469l-13.717,1.336c-1.209,0.118-1.838,0.79-1.893,2.013
	l-2,33.11l-0.518,0.05l-8.352-32.102c-0.291-1.19-1.039-1.728-2.246-1.61l-13.715,1.336c-0.518,0.051-0.887,0.282-1.109,0.696
	c-0.221,0.414-0.225,0.828-0.01,1.242l20.1,52.118l2.389,24.521C277.781,102.25,281.596,99.583,286.107,99.093z"/>
<path class="st2" d="M325.232,89.509c0.454-0.049,0.906-0.081,1.354-0.097l-1.096-11.25l4.675,11.481
	c5.049,0.834,9.192,3.792,10.866,7.852c1.963,0.444,3.809,1.161,5.467,2.134c0.933-0.681,1.926-1.303,2.969-1.865l-11.023-26.088
	c2.539-1.64,4.504-3.812,5.895-6.517c1.391-2.703,1.932-5.651,1.621-8.844l-2.055-21.09c-0.219-2.242-0.857-4.312-1.912-6.214
	c-1.057-1.899-2.389-3.51-3.996-4.835c-1.611-1.323-3.449-2.319-5.518-2.99c-2.068-0.667-4.223-0.895-6.465-0.676l-19.408,1.891
	c-1.209,0.118-1.754,0.781-1.635,1.988l7.053,72.408c0.394-0.12,0.78-0.25,1.184-0.354
	C315.566,92.795,319.965,90.082,325.232,89.509z M325.422,34.544c0.859-0.084,1.623,0.148,2.287,0.691
	c0.662,0.546,1.035,1.25,1.119,2.111l1.93,19.796c0.084,0.863-0.148,1.627-0.691,2.288c-0.547,0.663-1.25,1.036-2.111,1.12
	l-4.141,0.403l-2.533-26.007L325.422,34.544z"/>
<path class="st2" d="M392.186,14.651c-0.297-0.363-0.703-0.519-1.221-0.469l-13.715,1.336c-1.209,0.118-1.84,0.789-1.895,2.013
	l-2,33.11l-0.516,0.05l-8.354-32.102c-0.291-1.189-1.039-1.727-2.246-1.609l-13.715,1.336c-0.518,0.051-0.887,0.282-1.107,0.696
	s-0.227,0.828-0.01,1.242l20.098,52.118l2.248,23.073c6.281,1.71,11.475,5.627,14.267,10.845l0.37-0.036
	c1.207-0.118,1.752-0.779,1.635-1.988l-3.252-33.381l9.662-55.017C392.564,15.42,392.482,15.015,392.186,14.651z"/>
<line class="st0" x1="11.778" y1="181.334" x2="430.445" y2="136"/>
<line class="st0" x1="11.778" y1="204.334" x2="430.445" y2="159"/>
<line class="st0" x1="23.668" y1="21.009" x2="42.554" y2="224.324"/>
<line class="st0" x1="1.555" y1="52.172" x2="420.668" y2="11.162"/>
<line class="st0" x1="393.006" y1="4.15" x2="395.217" y2="185.184"/>
</svg>
